<svg version="1.1" id="Layer_1" xmlns="http://www.w3.org/2000/svg" xmlns:xlink="http://www.w3.org/1999/xlink" x="0px" y="0px"
	 width="100%" viewBox="0 0 512 512" enable-background="new 0 0 512 512" xml:space="preserve">
<path fill="#8c8c8c" opacity="1.000000" stroke="none"
	d="
M346.399170,397.411987 
	C344.653809,398.437775 342.948120,399.038147 341.866089,400.212891 
	C328.348114,414.889801 310.692535,420.861481 291.738770,423.635040 
	C263.825623,427.719727 235.963776,427.569092 208.456131,420.488922 
	C195.173340,417.070129 183.163483,411.163086 173.746292,400.811218 
	C172.124298,399.028229 169.919006,398.189270 167.867569,397.098877 
	C135.847839,380.079407 112.969849,355.239838 102.538788,320.004761 
	C99.179787,308.658386 97.588387,296.916290 97.093201,285.080078 
	C96.918633,280.907349 96.857193,276.832611 95.241310,272.842712 
	C93.140320,267.654907 94.620720,262.378448 96.925621,257.864960 
	C98.965843,253.869766 99.510963,250.113922 98.978714,245.920258 
	C98.769569,244.272385 98.179008,242.116776 99.898552,241.336014 
	C104.289215,239.342453 104.496681,235.110565 105.807816,231.459183 
	C125.123230,177.667542 160.418289,139.564362 215.063980,120.738373 
	C220.462296,118.878609 224.066223,116.484726 226.711624,111.278572 
	C232.546280,99.795883 242.709564,93.306892 254.695419,89.417686 
	C255.775177,89.067314 256.877075,88.484169 258.310455,89.541862 
	C258.232971,95.804405 255.270264,102.176720 257.173431,109.891060 
	C265.224609,103.907677 272.162201,97.305695 282.634949,95.221176 
	C281.502838,100.501175 280.907074,105.184738 281.068848,109.936264 
	C281.207123,113.998856 282.703674,116.136688 286.950928,117.153175 
	C338.429932,129.473526 374.316772,161.316299 399.099335,207.035019 
	C403.733154,215.583466 406.973694,224.658630 409.819763,233.868576 
	C411.088806,237.975220 412.895050,240.205139 417.388092,241.029449 
	C426.001221,242.609589 432.053558,247.936111 435.478668,255.983871 
	C438.209015,262.399200 436.414062,268.020264 429.840088,269.430664 
	C420.871887,271.354828 420.168762,278.044128 418.922028,284.675476 
	C416.103302,299.668457 414.985352,315.000641 409.361237,329.412689 
	C397.336395,360.226959 375.563812,381.986938 346.399170,397.411987 
M196.541367,393.474030 
	C201.229950,386.733032 202.812454,385.855438 207.597397,388.165802 
	C212.490585,390.528473 214.873734,394.427856 215.091873,400.098083 
	C215.461121,409.696716 220.485550,412.582489 228.621719,408.358826 
	C232.671417,406.256470 239.393585,406.706543 242.112183,410.090363 
	C244.388107,412.923157 246.633286,415.573975 250.212234,417.236115 
	C247.698013,420.262238 244.182159,418.139038 240.622513,420.368683 
	C248.887741,421.155640 256.009460,420.957031 263.548035,420.780792 
	C262.643890,418.799072 260.407837,419.178436 260.029053,417.294250 
	C262.327209,412.635590 265.923981,409.665039 271.396027,409.011139 
	C275.199799,408.556610 278.974792,408.046448 282.825775,408.016907 
	C291.283203,407.951996 299.793793,408.611481 308.087769,406.034058 
	C310.097229,405.409576 312.369659,405.355011 314.502625,405.451050 
	C325.090393,405.927979 334.078644,402.725647 340.631287,394.110748 
	C343.656647,390.133240 346.160553,385.805176 347.763916,381.002075 
	C354.766449,360.024658 351.805969,339.624817 344.221954,319.502136 
	C341.768768,312.992981 341.793274,313.233521 347.968689,310.616882 
	C374.039856,299.569916 390.085693,280.389038 392.693573,251.863953 
	C395.503632,221.127167 381.999847,198.363739 355.438293,183.384537 
	C337.351685,173.184753 317.742615,173.632019 298.034058,176.958466 
	C282.882629,179.515778 269.068848,184.694397 259.925598,198.210815 
	C257.599731,201.649124 255.835236,199.489075 254.252029,197.276535 
	C248.627792,189.416702 241.051727,184.094955 232.028915,181.002228 
	C213.214462,174.553238 193.957458,172.875793 174.503082,177.419922 
	C136.230118,186.359619 112.687462,227.677078 124.462456,265.117981 
	C131.513794,287.539124 146.299286,302.889435 168.247116,311.176697 
	C172.171814,312.658630 172.994614,314.288757 171.287842,318.122620 
	C166.639786,328.563324 164.313370,339.648956 163.481277,350.996796 
	C162.592575,363.116699 163.981781,374.950500 169.420807,386.027527 
	C170.579391,388.387085 171.701935,391.722382 174.622681,391.565186 
	C181.846680,391.176453 188.538498,395.093109 196.541367,393.474030 
z"/>
<path fill="#8c8c8c" opacity="1.000000" stroke="none"
	d="
M435.787476,74.748215 
	C441.306976,70.163933 446.576447,65.828079 451.809326,61.448498 
	C453.606903,59.944061 455.359283,59.308838 457.727203,60.368610 
	C465.510864,63.852257 470.967621,72.079056 470.322266,79.663010 
	C469.708435,86.876686 462.474121,94.721420 454.575562,96.589836 
	C448.707367,97.977982 443.768677,95.780777 439.338318,92.181381 
	C437.667847,90.824219 436.175171,89.222359 434.734070,87.613228 
	C429.133728,81.359726 429.216888,80.344482 435.787476,74.748215 
M463.948242,76.638519 
	C463.832275,75.134834 463.519348,73.719261 462.679626,72.402092 
	C459.121124,66.820343 456.239349,66.320435 451.165894,70.498291 
	C447.834045,73.241943 444.611938,76.130463 441.162048,78.715698 
	C438.017456,81.072128 438.383057,83.034698 441.068512,85.452881 
	C444.858368,88.865547 449.096436,91.382698 454.149445,89.483627 
	C459.509766,87.469055 463.375702,83.640457 463.948242,76.638519 
z"/>
<path fill="#8c8c8c" opacity="1.000000" stroke="none"
	d="
M417.770935,60.993217 
	C420.418884,64.514236 423.072296,68.792885 427.558472,66.165512 
	C432.556213,63.238522 428.653900,59.169090 427.211639,55.695412 
	C426.319214,53.546089 425.000214,51.556087 424.263794,49.363228 
	C422.207916,43.241570 425.584167,38.726486 432.058563,38.704807 
	C439.670868,38.679317 446.780304,45.825115 446.446075,53.079250 
	C446.341858,55.341408 445.626251,57.086567 443.182220,57.348545 
	C440.322845,57.655045 439.912903,55.577553 439.934967,53.439579 
	C439.972565,49.793884 438.921387,46.842682 435.220551,45.480629 
	C433.948242,45.012363 432.565033,44.858295 431.422211,45.822556 
	C430.094482,46.942871 430.752808,48.298206 431.288452,49.488518 
	C432.653503,52.521881 434.325714,55.430962 435.507263,58.529991 
	C437.797058,64.535744 436.711792,68.943771 432.531311,71.962608 
	C428.005219,75.231018 423.203644,75.046585 418.282898,71.154449 
	C413.723083,67.547752 410.302032,63.150398 409.495605,57.130054 
	C409.110229,54.252773 409.228943,51.430374 412.701508,50.911617 
	C416.657562,50.320633 416.164978,53.454453 416.169830,55.940968 
	C416.173157,57.656631 416.690247,59.217075 417.770935,60.993217 
z"/>
<path fill="#8c8c8c" opacity="1.000000" stroke="none"
	d="
M473.794800,97.650856 
	C469.200287,101.282043 464.914825,104.710121 460.663574,108.180115 
	C459.114899,109.444229 457.587280,110.324532 455.882050,108.520683 
	C454.073700,106.607750 454.706482,104.885284 456.464111,103.386230 
	C462.918060,97.881790 469.327332,92.321526 475.895111,86.955681 
	C478.683472,84.677574 481.636169,83.943405 483.461121,88.274429 
	C484.169464,89.955498 485.864410,89.900948 487.188934,90.440186 
	C498.888367,95.203270 500.894318,106.041428 491.500153,114.152634 
	C487.220276,117.848045 482.840790,121.428894 478.477173,125.026100 
	C476.684357,126.504013 474.686707,127.508942 472.779114,125.340073 
	C470.636810,122.904358 472.704651,121.434692 474.345367,120.031647 
	C478.517487,116.463898 482.737183,112.951813 486.932922,109.411598 
	C489.567139,107.188911 492.131226,104.750786 490.399963,100.943428 
	C488.674805,97.149498 485.508331,95.247757 481.205536,95.314110 
	C478.603088,95.354248 476.369049,96.385078 473.794800,97.650856 
z"/>
<path fill="#8c8c8c" opacity="1.000000" stroke="none"
	d="
M464.222565,267.469086 
	C463.774139,269.286163 463.345886,270.776031 461.828308,268.544739 
	C456.253357,260.348053 450.279602,252.459763 443.831970,244.926346 
	C443.101562,244.072906 442.392151,242.942932 442.267487,241.871994 
	C441.517792,235.432434 442.588898,228.725815 438.250153,222.469803 
	C452.403198,225.040161 466.787903,250.673859 464.222565,267.469086 
z"/>
<path fill="#8c8c8c" opacity="1.000000" stroke="none"
	d="
M408.930084,22.314926 
	C405.756409,22.271673 403.336517,23.404490 401.057068,24.799833 
	C397.035583,27.261559 393.641083,30.453415 394.481964,35.598850 
	C395.330353,40.790108 398.933746,44.060757 403.903503,45.583969 
	C406.434357,46.359673 409.904114,46.341454 408.448029,50.301308 
	C407.211517,53.664131 404.024597,52.920547 401.577026,51.877117 
	C394.458038,48.842243 389.083771,43.878963 387.883942,35.955166 
	C386.785461,28.700672 390.787567,23.518499 396.589783,19.771864 
	C403.061035,15.593218 409.880615,14.644092 416.848755,18.688969 
	C420.962006,21.076645 423.629242,24.557352 424.212097,29.370115 
	C424.469727,31.497446 423.969421,33.530533 421.545837,34.076481 
	C418.719360,34.713200 418.212128,32.547085 417.907166,30.497335 
	C417.165222,25.510721 414.278717,22.844791 408.930084,22.314926 
z"/>
<path fill="#8c8c8c" opacity="1.000000" stroke="none"
	d="
M245.244537,242.812866 
	C245.632324,246.459579 247.424759,247.845612 250.677597,247.712372 
	C255.664398,247.508072 260.989349,248.509064 265.562775,247.068390 
	C271.124939,245.316254 269.844421,238.624557 271.645172,234.195297 
	C281.388062,210.230942 304.917084,196.415344 330.953461,199.787949 
	C355.460480,202.962448 374.640900,223.065338 377.375702,248.442825 
	C380.420105,276.693604 361.091522,303.009705 333.468109,308.223450 
	C304.763306,313.641266 277.421082,296.606995 269.922485,268.634308 
	C267.872467,260.987030 267.872498,260.987030 259.851166,260.960480 
	C247.327408,260.919006 247.327393,260.919006 243.474899,272.102142 
	C234.741882,297.452484 208.831390,313.006531 182.781876,308.536102 
	C155.317581,303.822876 136.502747,281.284210 136.716507,253.353546 
	C136.919708,226.805786 156.711060,203.937149 183.103317,199.852722 
	C211.347595,195.481689 238.770111,213.369171 245.244537,242.812866 
M233.041092,263.392517 
	C237.033096,244.000534 228.342834,225.639328 211.338150,216.646255 
	C199.685913,210.483917 181.448166,210.805283 172.684052,218.555389 
	C177.289551,220.292664 181.555313,221.611816 186.205139,222.032089 
	C206.478699,223.864487 218.664719,242.764801 210.957764,260.249176 
	C204.980591,273.809204 189.526382,280.038849 175.810059,274.417145 
	C161.907944,268.719330 155.450256,252.963120 161.129898,238.649551 
	C161.800598,236.959290 162.494034,235.253174 162.898773,233.490540 
	C163.196335,232.194748 163.043060,230.733139 161.642212,229.986542 
	C160.365356,229.306046 159.406265,230.210297 158.552032,230.982483 
	C156.565552,232.778214 154.761749,234.734726 153.676254,237.240952 
	C142.955154,261.994293 156.806732,287.363434 180.221237,294.532990 
	C203.489685,301.657776 226.414062,287.959961 233.041092,263.392517 
M302.266876,261.021027 
	C299.978790,256.452362 298.979187,251.649750 299.466431,246.529449 
	C299.718323,243.882690 300.018982,241.201569 299.855347,238.563385 
	C299.604645,234.520996 297.379791,231.580093 293.441284,230.594559 
	C289.764038,229.674377 287.621368,232.054077 285.962341,235.051834 
	C282.594574,241.137146 280.458496,247.785690 280.516571,254.562546 
	C280.750519,281.861938 306.940704,301.723450 333.332001,295.031860 
	C352.483521,290.175995 365.858856,272.095978 364.868500,252.402664 
	C363.843628,232.022903 348.829041,215.329788 328.642303,212.699402 
	C322.492767,211.898087 316.364319,212.812210 311.777588,218.372086 
	C319.246429,218.870911 326.102142,221.234955 333.075684,223.106277 
	C345.447479,226.426208 354.115112,237.504852 353.908569,249.814316 
	C353.705109,261.940491 345.131317,272.655090 333.299896,275.568726 
	C320.875305,278.628448 308.815369,273.179291 302.266876,261.021027 
M311.834808,237.775833 
	C312.936188,243.926498 317.533234,246.662994 321.692444,243.574905 
	C323.798462,242.011261 325.130707,239.851944 324.435730,237.158356 
	C323.733368,234.436371 322.008392,232.439926 318.982941,232.179276 
	C315.336365,231.865128 313.060577,233.658249 311.834808,237.775833 
M179.129929,232.223846 
	C173.665054,232.654648 170.609833,235.805695 171.929642,239.805771 
	C172.882050,242.692291 174.680862,244.810684 178.060211,244.678391 
	C181.258713,244.553207 183.530777,242.801086 184.252396,239.790558 
	C185.122025,236.162460 183.097839,233.814545 179.129929,232.223846 
z"/>
<path fill="#8c8c8c" opacity="1.000000" stroke="none"
	d="
M254.146881,370.689087 
	C261.836975,370.409637 268.804504,371.258514 275.471832,374.381927 
	C279.653198,376.340759 280.586517,379.826630 280.703308,383.745270 
	C280.812714,387.415100 277.830933,388.852692 275.058380,389.915405 
	C262.966156,394.550385 250.767029,394.879333 238.660675,390.002960 
	C235.196884,388.607788 231.955826,386.369110 232.050308,382.116730 
	C232.142471,377.968079 235.255386,375.757538 238.738281,374.217224 
	C243.487335,372.116882 248.479095,370.958344 254.146881,370.689087 
z"/>
<path fill="#8c8c8c" opacity="1.000000" stroke="none"
	d="
M238.905258,309.760529 
	C246.273605,311.482452 249.930405,315.254852 250.101166,320.899109 
	C250.242950,325.585266 246.895370,330.455902 242.322510,331.977783 
	C238.043106,333.402008 234.044998,332.696259 230.804535,329.520020 
	C227.664185,326.441956 226.138748,322.665192 227.487518,318.220825 
	C229.127045,312.818451 232.964737,310.155884 238.905258,309.760529 
z"/>
<path fill="#8c8c8c" opacity="1.000000" stroke="none"
	d="
M269.476227,330.696350 
	C264.633606,326.979889 263.631348,322.298706 265.233582,317.137024 
	C266.658325,312.547302 270.324341,310.266418 274.965485,309.824371 
	C279.701935,309.373199 283.333405,311.473267 285.772125,315.505219 
	C288.314362,319.708405 287.674347,325.182617 284.339142,328.893768 
	C280.767944,332.867523 275.877655,333.547089 269.476227,330.696350 
z"/>
</svg>
